<svg id="Layer_1" data-name="Layer 1" xmlns="http://www.w3.org/2000/svg" viewBox="0 0 51.23 48"><defs><style>.cls-1{fill:#4b3e59;}</style></defs><g id="Group_21" data-name="Group 21"><path id="Path_65" data-name="Path 65" class="cls-1" d="M0,5V.08A1.08,1.08,0,0,1,.31,0C2.56,0,4.82,0,7.07,0a5.6,5.6,0,0,1,5.26,4c.55,1.7,1.14,3.38,1.64,5.09.19.63.48.77,1.11.77q16.52,0,33,0a4,4,0,0,1,1.8.39,2.5,2.5,0,0,1,1.18,3.12c-1.77,5.33-3.45,10.69-5.44,15.93a8,8,0,0,1-7.55,5.3c-4.82.19-9.66.12-14.49,0A9,9,0,0,1,15,28.16Q11.4,17.21,7.8,6.22C7.4,5,7.39,5,6.09,5ZM15.92,15c.08.26.14.48.21.7L19.7,26.49a4.18,4.18,0,0,0,4.55,3.29H37a4.16,4.16,0,0,0,4.5-3.25L45.1,15.7c.08-.23.14-.47.22-.74Z"/><path id="Path_66" data-name="Path 66" class="cls-1" d="M17.34,48a3.29,3.29,0,1,1,.07,0h-.07"/><path id="Path_67" data-name="Path 67" class="cls-1" d="M43.82,48a3.3,3.3,0,1,1,.06,0h-.06"/></g></svg>