<?xml version="1.0" encoding="utf-8"?>
<!-- Generator: Adobe Illustrator 25.2.1, SVG Export Plug-In . SVG Version: 6.00 Build 0)  -->
<svg version="1.1" id="Layer_1" xmlns="http://www.w3.org/2000/svg" xmlns:xlink="http://www.w3.org/1999/xlink" x="0px" y="0px"
	 viewBox="0 0 393.7 393.7" style="enable-background:new 0 0 393.7 393.7;" xml:space="preserve">
<style type="text/css">
	.st0{fill:#F2EAE0;}
</style>
<path class="st0" d="M203.1,0c19.8,16.4,35.9,35.5,46.5,54.7c43.5,79-36.7,179.9-119,166.9s-89.7-55.2-93.4-109.8s33.5-66.6,67-82.4
	s71.6,28.3,79.2,58.2s-13,44.3-37.7,58.2s-42.6-7.6-53.2-16.4S77.8,90.9,108,75.9s36.4,17.6,32.2,25.9s-15.3,9.1-15.3,9.1
	c9.5-12,3.2-20.9-8.6-22.7s-26.9,21.8-6.7,37.8s40.7-0.7,45.4-6.7s22-30.9-5.4-52.5s-42.7-16.6-55.5-8s-55.7,53.1-1.1,96.2
	s97.4-7.1,97.4-7.1S249,83.4,169.7,20.9S14.9,51.5,9.7,131.1s115,109.7,115,109.7c12,43.5-17.1,84-17.1,84s-35.2,5.7-81.6-31
	c-9.4-7.6-18.1-15.9-26-25v124.9h393.7V0H203.1z M218.5,351.9L205.9,375l-12.6-23.1l-23.1-12.6l23.1-12.6l12.7-23.1l12.6,23.1
	l23.1,12.6L218.5,351.9z M349.3,293.2L308.9,272l-40.5,21.3l7.7-45l-32.7-31.9l45.2-6.6l20.2-41l20.2,41l45.2,6.6l-32.7,31.9
	L349.3,293.2z"/>
</svg>
